<?xml version="1.0" encoding="UTF-8" standalone="no"?>
<svg
   width="432pt"
   height="216pt"
   viewBox="0 0 432 216"
   version="1.1"
   id="svg461"
   sodipodi:docname="conocido_desconocido_vs_sexo.svg"
   inkscape:version="1.1.2 (0a00cf5339, 2022-02-04)"
   xmlns:inkscape="http://www.inkscape.org/namespaces/inkscape"
   xmlns:sodipodi="http://sodipodi.sourceforge.net/DTD/sodipodi-0.dtd"
   xmlns:xlink="http://www.w3.org/1999/xlink"
   xmlns="http://www.w3.org/2000/svg"
   xmlns:svg="http://www.w3.org/2000/svg"
   xmlns:rdf="http://www.w3.org/1999/02/22-rdf-syntax-ns#"
   xmlns:cc="http://creativecommons.org/ns#"
   xmlns:dc="http://purl.org/dc/elements/1.1/">
  <sodipodi:namedview
     id="namedview463"
     pagecolor="#ffffff"
     bordercolor="#666666"
     borderopacity="1.0"
     inkscape:pageshadow="2"
     inkscape:pageopacity="0.0"
     inkscape:pagecheckerboard="0"
     inkscape:document-units="pt"
     showgrid="false"
     inkscape:zoom="1.9548611"
     inkscape:cx="283.65187"
     inkscape:cy="143.74423"
     inkscape:window-width="1883"
     inkscape:window-height="1056"
     inkscape:window-x="0"
     inkscape:window-y="0"
     inkscape:window-maximized="1"
     inkscape:current-layer="ytick_1" />
  <metadata
     id="metadata2">
    <rdf:RDF>
      <cc:Work>
        <dc:type
           rdf:resource="http://purl.org/dc/dcmitype/StillImage" />
        <dc:date>2023-03-10T11:56:21.751368</dc:date>
        <dc:format>image/svg+xml</dc:format>
        <dc:creator>
          <cc:Agent>
            <dc:title>Matplotlib v3.6.3, https://matplotlib.org/</dc:title>
          </cc:Agent>
        </dc:creator>
      </cc:Work>
    </rdf:RDF>
  </metadata>
  <defs
     id="defs6">
    <style
       type="text/css"
       id="style4">*{stroke-linejoin: round; stroke-linecap: butt}</style>
  </defs>
  <g
     id="figure_1">
    <g
       id="patch_1">
      <path
         d="M 0 216  L 432 216  L 432 0  L 0 0  z "
         style="fill: #ffffff"
         id="path8" />
    </g>
    <g
       id="axes_1">
      <g
         id="patch_2">
        <path
           d="M 54 192.24  L 388.8 192.24  L 388.8 25.92  L 54 25.92  z "
           style="fill: #ffffff"
           id="path11" />
      </g>
      <g
         id="patch_3">
        <path
           d="M 54 171.45  L 128.895633 171.45  L 128.895633 129.87  L 54 129.87  z "
           clip-path="url(#pde99a76db2)"
           style="fill: #bebada"
           id="path14" />
      </g>
      <g
         id="patch_4">
        <path
           d="M 54 88.29  L 72.173205 88.29  L 72.173205 46.71  L 54 46.71  z "
           clip-path="url(#pde99a76db2)"
           style="fill: #bebada"
           id="path17" />
      </g>
      <g
         id="patch_5">
        <path
           d="M 128.895633 171.45  L 130.547742 171.45  L 130.547742 129.87  L 128.895633 129.87  z "
           clip-path="url(#pde99a76db2)"
           style="fill: #d9d9d9"
           id="path20" />
      </g>
      <g
         id="patch_6">
        <path
           d="M 72.173205 88.29  L 77.680237 88.29  L 77.680237 46.71  L 72.173205 46.71  z "
           clip-path="url(#pde99a76db2)"
           style="fill: #d9d9d9"
           id="path23" />
      </g>
      <g
         id="patch_7">
        <path
           d="M 130.547742 171.45  L 372.857143 171.45  L 372.857143 129.87  L 130.547742 129.87  z "
           clip-path="url(#pde99a76db2)"
           style="fill: #80b1d3"
           id="path26" />
      </g>
      <g
         id="patch_8">
        <path
           d="M 77.680237 88.29  L 285.84604 88.29  L 285.84604 46.71  L 77.680237 46.71  z "
           clip-path="url(#pde99a76db2)"
           style="fill: #80b1d3"
           id="path29" />
      </g>
      <g
         id="matplotlib.axis_1">
        <g
           id="xtick_1">
          <g
             id="line2d_1">
            <defs
               id="defs33">
              <path
                 id="m56ff8346ca"
                 d="M 0 0  L 0 3.5  "
                 style="stroke: #000000; stroke-width: 0.8" />
            </defs>
            <g
               id="g37">
              <use
                 xlink:href="#m56ff8346ca"
                 x="54"
                 y="192.24"
                 style="stroke: #000000; stroke-width: 0.8"
                 id="use35" />
            </g>
          </g>
          <g
             id="text_1">
            <!-- 0 -->
            <g
               transform="translate(50.81875 206.838437) scale(0.1 -0.1)"
               id="g45">
              <defs
                 id="defs41">
                <path
                   id="DejaVuSans-30"
                   d="M 2034 4250  Q 1547 4250 1301 3770  Q 1056 3291 1056 2328  Q 1056 1369 1301 889  Q 1547 409 2034 409  Q 2525 409 2770 889  Q 3016 1369 3016 2328  Q 3016 3291 2770 3770  Q 2525 4250 2034 4250  z M 2034 4750  Q 2819 4750 3233 4129  Q 3647 3509 3647 2328  Q 3647 1150 3233 529  Q 2819 -91 2034 -91  Q 1250 -91 836 529  Q 422 1150 422 2328  Q 422 3509 836 4129  Q 1250 4750 2034 4750  z "
                   transform="scale(0.015625)" />
              </defs>
              <use
                 xlink:href="#DejaVuSans-30"
                 id="use43" />
            </g>
          </g>
        </g>
        <g
           id="xtick_2">
          <g
             id="line2d_2">
            <g
               id="g51">
              <use
                 xlink:href="#m56ff8346ca"
                 x="109.070318"
                 y="192.24"
                 style="stroke: #000000; stroke-width: 0.8"
                 id="use49" />
            </g>
          </g>
          <g
             id="text_2">
            <!-- 100 -->
            <g
               transform="translate(99.526568 206.838437) scale(0.1 -0.1)"
               id="g63">
              <defs
                 id="defs55">
                <path
                   id="DejaVuSans-31"
                   d="M 794 531  L 1825 531  L 1825 4091  L 703 3866  L 703 4441  L 1819 4666  L 2450 4666  L 2450 531  L 3481 531  L 3481 0  L 794 0  L 794 531  z "
                   transform="scale(0.015625)" />
              </defs>
              <use
                 xlink:href="#DejaVuSans-31"
                 id="use57" />
              <use
                 xlink:href="#DejaVuSans-30"
                 x="63.623047"
                 id="use59" />
              <use
                 xlink:href="#DejaVuSans-30"
                 x="127.246094"
                 id="use61" />
            </g>
          </g>
        </g>
        <g
           id="xtick_3">
          <g
             id="line2d_3">
            <g
               id="g69">
              <use
                 xlink:href="#m56ff8346ca"
                 x="164.140637"
                 y="192.24"
                 style="stroke: #000000; stroke-width: 0.8"
                 id="use67" />
            </g>
          </g>
          <g
             id="text_3">
            <!-- 200 -->
            <g
               transform="translate(154.596887 206.838437) scale(0.1 -0.1)"
               id="g81">
              <defs
                 id="defs73">
                <path
                   id="DejaVuSans-32"
                   d="M 1228 531  L 3431 531  L 3431 0  L 469 0  L 469 531  Q 828 903 1448 1529  Q 2069 2156 2228 2338  Q 2531 2678 2651 2914  Q 2772 3150 2772 3378  Q 2772 3750 2511 3984  Q 2250 4219 1831 4219  Q 1534 4219 1204 4116  Q 875 4013 500 3803  L 500 4441  Q 881 4594 1212 4672  Q 1544 4750 1819 4750  Q 2544 4750 2975 4387  Q 3406 4025 3406 3419  Q 3406 3131 3298 2873  Q 3191 2616 2906 2266  Q 2828 2175 2409 1742  Q 1991 1309 1228 531  z "
                   transform="scale(0.015625)" />
              </defs>
              <use
                 xlink:href="#DejaVuSans-32"
                 id="use75" />
              <use
                 xlink:href="#DejaVuSans-30"
                 x="63.623047"
                 id="use77" />
              <use
                 xlink:href="#DejaVuSans-30"
                 x="127.246094"
                 id="use79" />
            </g>
          </g>
        </g>
        <g
           id="xtick_4">
          <g
             id="line2d_4">
            <g
               id="g87">
              <use
                 xlink:href="#m56ff8346ca"
                 x="219.210955"
                 y="192.24"
                 style="stroke: #000000; stroke-width: 0.8"
                 id="use85" />
            </g>
          </g>
          <g
             id="text_4">
            <!-- 300 -->
            <g
               transform="translate(209.667205 206.838437) scale(0.1 -0.1)"
               id="g99">
              <defs
                 id="defs91">
                <path
                   id="DejaVuSans-33"
                   d="M 2597 2516  Q 3050 2419 3304 2112  Q 3559 1806 3559 1356  Q 3559 666 3084 287  Q 2609 -91 1734 -91  Q 1441 -91 1130 -33  Q 819 25 488 141  L 488 750  Q 750 597 1062 519  Q 1375 441 1716 441  Q 2309 441 2620 675  Q 2931 909 2931 1356  Q 2931 1769 2642 2001  Q 2353 2234 1838 2234  L 1294 2234  L 1294 2753  L 1863 2753  Q 2328 2753 2575 2939  Q 2822 3125 2822 3475  Q 2822 3834 2567 4026  Q 2313 4219 1838 4219  Q 1578 4219 1281 4162  Q 984 4106 628 3988  L 628 4550  Q 988 4650 1302 4700  Q 1616 4750 1894 4750  Q 2613 4750 3031 4423  Q 3450 4097 3450 3541  Q 3450 3153 3228 2886  Q 3006 2619 2597 2516  z "
                   transform="scale(0.015625)" />
              </defs>
              <use
                 xlink:href="#DejaVuSans-33"
                 id="use93" />
              <use
                 xlink:href="#DejaVuSans-30"
                 x="63.623047"
                 id="use95" />
              <use
                 xlink:href="#DejaVuSans-30"
                 x="127.246094"
                 id="use97" />
            </g>
          </g>
        </g>
        <g
           id="xtick_5">
          <g
             id="line2d_5">
            <g
               id="g105">
              <use
                 xlink:href="#m56ff8346ca"
                 x="274.281273"
                 y="192.24"
                 style="stroke: #000000; stroke-width: 0.8"
                 id="use103" />
            </g>
          </g>
          <g
             id="text_5">
            <!-- 400 -->
            <g
               transform="translate(264.737523 206.838437) scale(0.1 -0.1)"
               id="g117">
              <defs
                 id="defs109">
                <path
                   id="DejaVuSans-34"
                   d="M 2419 4116  L 825 1625  L 2419 1625  L 2419 4116  z M 2253 4666  L 3047 4666  L 3047 1625  L 3713 1625  L 3713 1100  L 3047 1100  L 3047 0  L 2419 0  L 2419 1100  L 313 1100  L 313 1709  L 2253 4666  z "
                   transform="scale(0.015625)" />
              </defs>
              <use
                 xlink:href="#DejaVuSans-34"
                 id="use111" />
              <use
                 xlink:href="#DejaVuSans-30"
                 x="63.623047"
                 id="use113" />
              <use
                 xlink:href="#DejaVuSans-30"
                 x="127.246094"
                 id="use115" />
            </g>
          </g>
        </g>
        <g
           id="xtick_6">
          <g
             id="line2d_6">
            <g
               id="g123">
              <use
                 xlink:href="#m56ff8346ca"
                 x="329.351591"
                 y="192.24"
                 style="stroke: #000000; stroke-width: 0.8"
                 id="use121" />
            </g>
          </g>
          <g
             id="text_6">
            <!-- 500 -->
            <g
               transform="translate(319.807841 206.838437) scale(0.1 -0.1)"
               id="g135">
              <defs
                 id="defs127">
                <path
                   id="DejaVuSans-35"
                   d="M 691 4666  L 3169 4666  L 3169 4134  L 1269 4134  L 1269 2991  Q 1406 3038 1543 3061  Q 1681 3084 1819 3084  Q 2600 3084 3056 2656  Q 3513 2228 3513 1497  Q 3513 744 3044 326  Q 2575 -91 1722 -91  Q 1428 -91 1123 -41  Q 819 9 494 109  L 494 744  Q 775 591 1075 516  Q 1375 441 1709 441  Q 2250 441 2565 725  Q 2881 1009 2881 1497  Q 2881 1984 2565 2268  Q 2250 2553 1709 2553  Q 1456 2553 1204 2497  Q 953 2441 691 2322  L 691 4666  z "
                   transform="scale(0.015625)" />
              </defs>
              <use
                 xlink:href="#DejaVuSans-35"
                 id="use129" />
              <use
                 xlink:href="#DejaVuSans-30"
                 x="63.623047"
                 id="use131" />
              <use
                 xlink:href="#DejaVuSans-30"
                 x="127.246094"
                 id="use133" />
            </g>
          </g>
        </g>
        <g
           id="xtick_7">
          <g
             id="line2d_7">
            <g
               id="g141">
              <use
                 xlink:href="#m56ff8346ca"
                 x="384.42191"
                 y="192.24"
                 style="stroke: #000000; stroke-width: 0.8"
                 id="use139" />
            </g>
          </g>
          <g
             id="text_7">
            <!-- 600 -->
            <g
               transform="translate(374.87816 206.838437) scale(0.1 -0.1)"
               id="g153">
              <defs
                 id="defs145">
                <path
                   id="DejaVuSans-36"
                   d="M 2113 2584  Q 1688 2584 1439 2293  Q 1191 2003 1191 1497  Q 1191 994 1439 701  Q 1688 409 2113 409  Q 2538 409 2786 701  Q 3034 994 3034 1497  Q 3034 2003 2786 2293  Q 2538 2584 2113 2584  z M 3366 4563  L 3366 3988  Q 3128 4100 2886 4159  Q 2644 4219 2406 4219  Q 1781 4219 1451 3797  Q 1122 3375 1075 2522  Q 1259 2794 1537 2939  Q 1816 3084 2150 3084  Q 2853 3084 3261 2657  Q 3669 2231 3669 1497  Q 3669 778 3244 343  Q 2819 -91 2113 -91  Q 1303 -91 875 529  Q 447 1150 447 2328  Q 447 3434 972 4092  Q 1497 4750 2381 4750  Q 2619 4750 2861 4703  Q 3103 4656 3366 4563  z "
                   transform="scale(0.015625)" />
              </defs>
              <use
                 xlink:href="#DejaVuSans-36"
                 id="use147" />
              <use
                 xlink:href="#DejaVuSans-30"
                 x="63.623047"
                 id="use149" />
              <use
                 xlink:href="#DejaVuSans-30"
                 x="127.246094"
                 id="use151" />
            </g>
          </g>
        </g>
        <g
           id="text_8">
          <!-- Inhumaciones -->
          <g
             transform="translate(186.436719 220.516562) scale(0.1 -0.1)"
             id="g194">
            <defs
               id="defs168">
              <path
                 id="DejaVuSans-49"
                 d="M 628 4666  L 1259 4666  L 1259 0  L 628 0  L 628 4666  z "
                 transform="scale(0.015625)" />
              <path
                 id="DejaVuSans-6e"
                 d="M 3513 2113  L 3513 0  L 2938 0  L 2938 2094  Q 2938 2591 2744 2837  Q 2550 3084 2163 3084  Q 1697 3084 1428 2787  Q 1159 2491 1159 1978  L 1159 0  L 581 0  L 581 3500  L 1159 3500  L 1159 2956  Q 1366 3272 1645 3428  Q 1925 3584 2291 3584  Q 2894 3584 3203 3211  Q 3513 2838 3513 2113  z "
                 transform="scale(0.015625)" />
              <path
                 id="DejaVuSans-68"
                 d="M 3513 2113  L 3513 0  L 2938 0  L 2938 2094  Q 2938 2591 2744 2837  Q 2550 3084 2163 3084  Q 1697 3084 1428 2787  Q 1159 2491 1159 1978  L 1159 0  L 581 0  L 581 4863  L 1159 4863  L 1159 2956  Q 1366 3272 1645 3428  Q 1925 3584 2291 3584  Q 2894 3584 3203 3211  Q 3513 2838 3513 2113  z "
                 transform="scale(0.015625)" />
              <path
                 id="DejaVuSans-75"
                 d="M 544 1381  L 544 3500  L 1119 3500  L 1119 1403  Q 1119 906 1312 657  Q 1506 409 1894 409  Q 2359 409 2629 706  Q 2900 1003 2900 1516  L 2900 3500  L 3475 3500  L 3475 0  L 2900 0  L 2900 538  Q 2691 219 2414 64  Q 2138 -91 1772 -91  Q 1169 -91 856 284  Q 544 659 544 1381  z M 1991 3584  L 1991 3584  z "
                 transform="scale(0.015625)" />
              <path
                 id="DejaVuSans-6d"
                 d="M 3328 2828  Q 3544 3216 3844 3400  Q 4144 3584 4550 3584  Q 5097 3584 5394 3201  Q 5691 2819 5691 2113  L 5691 0  L 5113 0  L 5113 2094  Q 5113 2597 4934 2840  Q 4756 3084 4391 3084  Q 3944 3084 3684 2787  Q 3425 2491 3425 1978  L 3425 0  L 2847 0  L 2847 2094  Q 2847 2600 2669 2842  Q 2491 3084 2119 3084  Q 1678 3084 1418 2786  Q 1159 2488 1159 1978  L 1159 0  L 581 0  L 581 3500  L 1159 3500  L 1159 2956  Q 1356 3278 1631 3431  Q 1906 3584 2284 3584  Q 2666 3584 2933 3390  Q 3200 3197 3328 2828  z "
                 transform="scale(0.015625)" />
              <path
                 id="DejaVuSans-61"
                 d="M 2194 1759  Q 1497 1759 1228 1600  Q 959 1441 959 1056  Q 959 750 1161 570  Q 1363 391 1709 391  Q 2188 391 2477 730  Q 2766 1069 2766 1631  L 2766 1759  L 2194 1759  z M 3341 1997  L 3341 0  L 2766 0  L 2766 531  Q 2569 213 2275 61  Q 1981 -91 1556 -91  Q 1019 -91 701 211  Q 384 513 384 1019  Q 384 1609 779 1909  Q 1175 2209 1959 2209  L 2766 2209  L 2766 2266  Q 2766 2663 2505 2880  Q 2244 3097 1772 3097  Q 1472 3097 1187 3025  Q 903 2953 641 2809  L 641 3341  Q 956 3463 1253 3523  Q 1550 3584 1831 3584  Q 2591 3584 2966 3190  Q 3341 2797 3341 1997  z "
                 transform="scale(0.015625)" />
              <path
                 id="DejaVuSans-63"
                 d="M 3122 3366  L 3122 2828  Q 2878 2963 2633 3030  Q 2388 3097 2138 3097  Q 1578 3097 1268 2742  Q 959 2388 959 1747  Q 959 1106 1268 751  Q 1578 397 2138 397  Q 2388 397 2633 464  Q 2878 531 3122 666  L 3122 134  Q 2881 22 2623 -34  Q 2366 -91 2075 -91  Q 1284 -91 818 406  Q 353 903 353 1747  Q 353 2603 823 3093  Q 1294 3584 2113 3584  Q 2378 3584 2631 3529  Q 2884 3475 3122 3366  z "
                 transform="scale(0.015625)" />
              <path
                 id="DejaVuSans-69"
                 d="M 603 3500  L 1178 3500  L 1178 0  L 603 0  L 603 3500  z M 603 4863  L 1178 4863  L 1178 4134  L 603 4134  L 603 4863  z "
                 transform="scale(0.015625)" />
              <path
                 id="DejaVuSans-6f"
                 d="M 1959 3097  Q 1497 3097 1228 2736  Q 959 2375 959 1747  Q 959 1119 1226 758  Q 1494 397 1959 397  Q 2419 397 2687 759  Q 2956 1122 2956 1747  Q 2956 2369 2687 2733  Q 2419 3097 1959 3097  z M 1959 3584  Q 2709 3584 3137 3096  Q 3566 2609 3566 1747  Q 3566 888 3137 398  Q 2709 -91 1959 -91  Q 1206 -91 779 398  Q 353 888 353 1747  Q 353 2609 779 3096  Q 1206 3584 1959 3584  z "
                 transform="scale(0.015625)" />
              <path
                 id="DejaVuSans-65"
                 d="M 3597 1894  L 3597 1613  L 953 1613  Q 991 1019 1311 708  Q 1631 397 2203 397  Q 2534 397 2845 478  Q 3156 559 3463 722  L 3463 178  Q 3153 47 2828 -22  Q 2503 -91 2169 -91  Q 1331 -91 842 396  Q 353 884 353 1716  Q 353 2575 817 3079  Q 1281 3584 2069 3584  Q 2775 3584 3186 3129  Q 3597 2675 3597 1894  z M 3022 2063  Q 3016 2534 2758 2815  Q 2500 3097 2075 3097  Q 1594 3097 1305 2825  Q 1016 2553 972 2059  L 3022 2063  z "
                 transform="scale(0.015625)" />
              <path
                 id="DejaVuSans-73"
                 d="M 2834 3397  L 2834 2853  Q 2591 2978 2328 3040  Q 2066 3103 1784 3103  Q 1356 3103 1142 2972  Q 928 2841 928 2578  Q 928 2378 1081 2264  Q 1234 2150 1697 2047  L 1894 2003  Q 2506 1872 2764 1633  Q 3022 1394 3022 966  Q 3022 478 2636 193  Q 2250 -91 1575 -91  Q 1294 -91 989 -36  Q 684 19 347 128  L 347 722  Q 666 556 975 473  Q 1284 391 1588 391  Q 1994 391 2212 530  Q 2431 669 2431 922  Q 2431 1156 2273 1281  Q 2116 1406 1581 1522  L 1381 1569  Q 847 1681 609 1914  Q 372 2147 372 2553  Q 372 3047 722 3315  Q 1072 3584 1716 3584  Q 2034 3584 2315 3537  Q 2597 3491 2834 3397  z "
                 transform="scale(0.015625)" />
            </defs>
            <use
               xlink:href="#DejaVuSans-49"
               id="use170" />
            <use
               xlink:href="#DejaVuSans-6e"
               x="29.492188"
               id="use172" />
            <use
               xlink:href="#DejaVuSans-68"
               x="92.871094"
               id="use174" />
            <use
               xlink:href="#DejaVuSans-75"
               x="156.25"
               id="use176" />
            <use
               xlink:href="#DejaVuSans-6d"
               x="219.628906"
               id="use178" />
            <use
               xlink:href="#DejaVuSans-61"
               x="317.041016"
               id="use180" />
            <use
               xlink:href="#DejaVuSans-63"
               x="378.320312"
               id="use182" />
            <use
               xlink:href="#DejaVuSans-69"
               x="433.300781"
               id="use184" />
            <use
               xlink:href="#DejaVuSans-6f"
               x="461.083984"
               id="use186" />
            <use
               xlink:href="#DejaVuSans-6e"
               x="522.265625"
               id="use188" />
            <use
               xlink:href="#DejaVuSans-65"
               x="585.644531"
               id="use190" />
            <use
               xlink:href="#DejaVuSans-73"
               x="647.167969"
               id="use192" />
          </g>
        </g>
      </g>
      <g
         id="matplotlib.axis_2">
        <g
           id="ytick_1">
          <g
             id="line2d_8">
            <defs
               id="defs199">
              <path
                 id="m5c15540876"
                 d="M 0 0  L -3.5 0  "
                 style="stroke: #000000; stroke-width: 0.8" />
            </defs>
            <g
               id="g203">
              <use
                 xlink:href="#m5c15540876"
                 x="54"
                 y="150.66"
                 style="stroke: #000000; stroke-width: 0.8"
                 id="use201" />
            </g>
          </g>
          <g
             id="text_9"
             transform="rotate(-90,23.855175,150.73109)">
            <!-- Conocido -->
            <g
               transform="matrix(0.1,0,0,-0.1,0.698437,154.45922)"
               id="g226">
              <defs
                 id="defs208">
                <path
                   id="DejaVuSans-43"
                   d="m 4122,4306 v -665 q -319,297 -680,443 -361,147 -767,147 -800,0 -1225,-489 -425,-489 -425,-1414 0,-922 425,-1411 425,-489 1225,-489 406,0 767,147 361,147 680,444 V 359 Q 3791,134 3420,21 3050,-91 2638,-91 1578,-91 968,557 359,1206 359,2328 q 0,1125 609,1773 610,649 1670,649 418,0 788,-111 371,-111 696,-333 z"
                   transform="scale(0.015625)" />
                <path
                   id="DejaVuSans-64"
                   d="m 2906,2969 v 1894 h 575 V 0 H 2906 V 525 Q 2725,213 2448,61 2172,-91 1784,-91 1150,-91 751,415 353,922 353,1747 q 0,825 398,1331 399,506 1033,506 388,0 664,-152 277,-151 458,-463 z M 947,1747 q 0,-634 261,-995 261,-361 717,-361 456,0 718,361 263,361 263,995 0,634 -263,995 -262,361 -718,361 -456,0 -717,-361 -261,-361 -261,-995 z"
                   transform="scale(0.015625)" />
              </defs>
              <use
                 xlink:href="#DejaVuSans-43"
                 id="use210"
                 x="0"
                 y="0"
                 width="100%"
                 height="100%" />
              <use
                 xlink:href="#DejaVuSans-6f"
                 x="69.824219"
                 id="use212"
                 y="0"
                 width="100%"
                 height="100%" />
              <use
                 xlink:href="#DejaVuSans-6e"
                 x="131.00586"
                 id="use214"
                 y="0"
                 width="100%"
                 height="100%" />
              <use
                 xlink:href="#DejaVuSans-6f"
                 x="194.38477"
                 id="use216"
                 y="0"
                 width="100%"
                 height="100%" />
              <use
                 xlink:href="#DejaVuSans-63"
                 x="255.56641"
                 id="use218"
                 y="0"
                 width="100%"
                 height="100%" />
              <use
                 xlink:href="#DejaVuSans-69"
                 x="310.54688"
                 id="use220"
                 y="0"
                 width="100%"
                 height="100%" />
              <use
                 xlink:href="#DejaVuSans-64"
                 x="338.33008"
                 id="use222"
                 y="0"
                 width="100%"
                 height="100%" />
              <use
                 xlink:href="#DejaVuSans-6f"
                 x="401.80664"
                 id="use224"
                 y="0"
                 width="100%"
                 height="100%" />
            </g>
          </g>
        </g>
        <g
           id="ytick_2"
           transform="rotate(-90,19.050781,67.571094)">
          <g
             id="line2d_9">
            <g
               id="g232">
              <use
                 xlink:href="#m5c15540876"
                 x="54"
                 y="67.5"
                 style="stroke:#000000;stroke-width:0.8"
                 id="use230"
                 width="100%"
                 height="100%" />
            </g>
          </g>
          <g
             id="text_10">
            <!-- Desconocido -->
            <g
               transform="matrix(0.1,0,0,-0.1,-16.879688,71.299219)"
               id="g260">
              <defs
                 id="defs236">
                <path
                   id="DejaVuSans-44"
                   d="M 1259,4147 V 519 h 763 q 966,0 1414,437 448,438 448,1382 0,937 -448,1373 -448,436 -1414,436 z m -631,519 h 1297 q 1356,0 1990,-564 635,-564 635,-1764 Q 4550,1131 3912,565 3275,0 1925,0 H 628 Z"
                   transform="scale(0.015625)" />
              </defs>
              <use
                 xlink:href="#DejaVuSans-44"
                 id="use238"
                 x="0"
                 y="0"
                 width="100%"
                 height="100%" />
              <use
                 xlink:href="#DejaVuSans-65"
                 x="77.001953"
                 id="use240"
                 y="0"
                 width="100%"
                 height="100%" />
              <use
                 xlink:href="#DejaVuSans-73"
                 x="138.52539"
                 id="use242"
                 y="0"
                 width="100%"
                 height="100%" />
              <use
                 xlink:href="#DejaVuSans-63"
                 x="190.625"
                 id="use244"
                 y="0"
                 width="100%"
                 height="100%" />
              <use
                 xlink:href="#DejaVuSans-6f"
                 x="245.60547"
                 id="use246"
                 y="0"
                 width="100%"
                 height="100%" />
              <use
                 xlink:href="#DejaVuSans-6e"
                 x="306.78711"
                 id="use248"
                 y="0"
                 width="100%"
                 height="100%" />
              <use
                 xlink:href="#DejaVuSans-6f"
                 x="370.16602"
                 id="use250"
                 y="0"
                 width="100%"
                 height="100%" />
              <use
                 xlink:href="#DejaVuSans-63"
                 x="431.34766"
                 id="use252"
                 y="0"
                 width="100%"
                 height="100%" />
              <use
                 xlink:href="#DejaVuSans-69"
                 x="486.32812"
                 id="use254"
                 y="0"
                 width="100%"
                 height="100%" />
              <use
                 xlink:href="#DejaVuSans-64"
                 x="514.11133"
                 id="use256"
                 y="0"
                 width="100%"
                 height="100%" />
              <use
                 xlink:href="#DejaVuSans-6f"
                 x="577.58789"
                 id="use258"
                 y="0"
                 width="100%"
                 height="100%" />
            </g>
          </g>
        </g>
      </g>
      <g
         id="patch_9">
        <path
           d="M 54 192.24  L 54 25.92  "
           style="fill: none; stroke: #000000; stroke-width: 0.8; stroke-linejoin: miter; stroke-linecap: square"
           id="path265" />
      </g>
      <g
         id="patch_10">
        <path
           d="M 388.8 192.24  L 388.8 25.92  "
           style="fill: none; stroke: #000000; stroke-width: 0.8; stroke-linejoin: miter; stroke-linecap: square"
           id="path268" />
      </g>
      <g
         id="patch_11">
        <path
           d="M 54 192.24  L 388.8 192.24  "
           style="fill: none; stroke: #000000; stroke-width: 0.8; stroke-linejoin: miter; stroke-linecap: square"
           id="path271" />
      </g>
      <g
         id="patch_12">
        <path
           d="M 54 25.92  L 388.8 25.92  "
           style="fill: none; stroke: #000000; stroke-width: 0.8; stroke-linejoin: miter; stroke-linecap: square"
           id="path274" />
      </g>
      <g
         id="text_11">
        <!-- Sexo de conocidos y desconocidos -->
        <g
           transform="translate(117.630938 19.92) scale(0.12 -0.12)"
           id="g347">
          <defs
             id="defs281">
            <path
               id="DejaVuSans-53"
               d="M 3425 4513  L 3425 3897  Q 3066 4069 2747 4153  Q 2428 4238 2131 4238  Q 1616 4238 1336 4038  Q 1056 3838 1056 3469  Q 1056 3159 1242 3001  Q 1428 2844 1947 2747  L 2328 2669  Q 3034 2534 3370 2195  Q 3706 1856 3706 1288  Q 3706 609 3251 259  Q 2797 -91 1919 -91  Q 1588 -91 1214 -16  Q 841 59 441 206  L 441 856  Q 825 641 1194 531  Q 1563 422 1919 422  Q 2459 422 2753 634  Q 3047 847 3047 1241  Q 3047 1584 2836 1778  Q 2625 1972 2144 2069  L 1759 2144  Q 1053 2284 737 2584  Q 422 2884 422 3419  Q 422 4038 858 4394  Q 1294 4750 2059 4750  Q 2388 4750 2728 4690  Q 3069 4631 3425 4513  z "
               transform="scale(0.015625)" />
            <path
               id="DejaVuSans-78"
               d="M 3513 3500  L 2247 1797  L 3578 0  L 2900 0  L 1881 1375  L 863 0  L 184 0  L 1544 1831  L 300 3500  L 978 3500  L 1906 2253  L 2834 3500  L 3513 3500  z "
               transform="scale(0.015625)" />
            <path
               id="DejaVuSans-20"
               transform="scale(0.015625)" />
            <path
               id="DejaVuSans-79"
               d="M 2059 -325  Q 1816 -950 1584 -1140  Q 1353 -1331 966 -1331  L 506 -1331  L 506 -850  L 844 -850  Q 1081 -850 1212 -737  Q 1344 -625 1503 -206  L 1606 56  L 191 3500  L 800 3500  L 1894 763  L 2988 3500  L 3597 3500  L 2059 -325  z "
               transform="scale(0.015625)" />
          </defs>
          <use
             xlink:href="#DejaVuSans-53"
             id="use283" />
          <use
             xlink:href="#DejaVuSans-65"
             x="63.476562"
             id="use285" />
          <use
             xlink:href="#DejaVuSans-78"
             x="123.25"
             id="use287" />
          <use
             xlink:href="#DejaVuSans-6f"
             x="179.304688"
             id="use289" />
          <use
             xlink:href="#DejaVuSans-20"
             x="240.486328"
             id="use291" />
          <use
             xlink:href="#DejaVuSans-64"
             x="272.273438"
             id="use293" />
          <use
             xlink:href="#DejaVuSans-65"
             x="335.75"
             id="use295" />
          <use
             xlink:href="#DejaVuSans-20"
             x="397.273438"
             id="use297" />
          <use
             xlink:href="#DejaVuSans-63"
             x="429.060547"
             id="use299" />
          <use
             xlink:href="#DejaVuSans-6f"
             x="484.041016"
             id="use301" />
          <use
             xlink:href="#DejaVuSans-6e"
             x="545.222656"
             id="use303" />
          <use
             xlink:href="#DejaVuSans-6f"
             x="608.601562"
             id="use305" />
          <use
             xlink:href="#DejaVuSans-63"
             x="669.783203"
             id="use307" />
          <use
             xlink:href="#DejaVuSans-69"
             x="724.763672"
             id="use309" />
          <use
             xlink:href="#DejaVuSans-64"
             x="752.546875"
             id="use311" />
          <use
             xlink:href="#DejaVuSans-6f"
             x="816.023438"
             id="use313" />
          <use
             xlink:href="#DejaVuSans-73"
             x="877.205078"
             id="use315" />
          <use
             xlink:href="#DejaVuSans-20"
             x="929.304688"
             id="use317" />
          <use
             xlink:href="#DejaVuSans-79"
             x="961.091797"
             id="use319" />
          <use
             xlink:href="#DejaVuSans-20"
             x="1020.271484"
             id="use321" />
          <use
             xlink:href="#DejaVuSans-64"
             x="1052.058594"
             id="use323" />
          <use
             xlink:href="#DejaVuSans-65"
             x="1115.535156"
             id="use325" />
          <use
             xlink:href="#DejaVuSans-73"
             x="1177.058594"
             id="use327" />
          <use
             xlink:href="#DejaVuSans-63"
             x="1229.158203"
             id="use329" />
          <use
             xlink:href="#DejaVuSans-6f"
             x="1284.138672"
             id="use331" />
          <use
             xlink:href="#DejaVuSans-6e"
             x="1345.320312"
             id="use333" />
          <use
             xlink:href="#DejaVuSans-6f"
             x="1408.699219"
             id="use335" />
          <use
             xlink:href="#DejaVuSans-63"
             x="1469.880859"
             id="use337" />
          <use
             xlink:href="#DejaVuSans-69"
             x="1524.861328"
             id="use339" />
          <use
             xlink:href="#DejaVuSans-64"
             x="1552.644531"
             id="use341" />
          <use
             xlink:href="#DejaVuSans-6f"
             x="1616.121094"
             id="use343" />
          <use
             xlink:href="#DejaVuSans-73"
             x="1677.302734"
             id="use345" />
        </g>
      </g>
      <g
         id="legend_1">
        <g
           id="patch_13">
          <path
             d="M 276.55 92.6325  L 381.8 92.6325  Q 383.8 92.6325 383.8 90.6325  L 383.8 32.92  Q 383.8 30.92 381.8 30.92  L 276.55 30.92  Q 274.55 30.92 274.55 32.92  L 274.55 90.6325  Q 274.55 92.6325 276.55 92.6325  z "
             style="fill: #ffffff; opacity: 0.8; stroke: #cccccc; stroke-linejoin: miter"
             id="path350" />
        </g>
        <g
           id="text_12">
          <!-- Sexo -->
          <g
             transform="translate(317.149219 42.518438) scale(0.1 -0.1)"
             id="g361">
            <use
               xlink:href="#DejaVuSans-53"
               id="use353" />
            <use
               xlink:href="#DejaVuSans-65"
               x="63.476562"
               id="use355" />
            <use
               xlink:href="#DejaVuSans-78"
               x="123.25"
               id="use357" />
            <use
               xlink:href="#DejaVuSans-6f"
               x="179.304688"
               id="use359" />
          </g>
        </g>
        <g
           id="patch_14">
          <path
             d="M 278.55 57.196562  L 298.55 57.196562  L 298.55 50.196562  L 278.55 50.196562  z "
             style="fill: #bebada"
             id="path364" />
        </g>
        <g
           id="text_13">
          <!-- Femenino -->
          <g
             transform="translate(306.55 57.196562) scale(0.1 -0.1)"
             id="g386">
            <defs
               id="defs368">
              <path
                 id="DejaVuSans-46"
                 d="M 628 4666  L 3309 4666  L 3309 4134  L 1259 4134  L 1259 2759  L 3109 2759  L 3109 2228  L 1259 2228  L 1259 0  L 628 0  L 628 4666  z "
                 transform="scale(0.015625)" />
            </defs>
            <use
               xlink:href="#DejaVuSans-46"
               id="use370" />
            <use
               xlink:href="#DejaVuSans-65"
               x="52.019531"
               id="use372" />
            <use
               xlink:href="#DejaVuSans-6d"
               x="113.542969"
               id="use374" />
            <use
               xlink:href="#DejaVuSans-65"
               x="210.955078"
               id="use376" />
            <use
               xlink:href="#DejaVuSans-6e"
               x="272.478516"
               id="use378" />
            <use
               xlink:href="#DejaVuSans-69"
               x="335.857422"
               id="use380" />
            <use
               xlink:href="#DejaVuSans-6e"
               x="363.640625"
               id="use382" />
            <use
               xlink:href="#DejaVuSans-6f"
               x="427.019531"
               id="use384" />
          </g>
        </g>
        <g
           id="patch_15">
          <path
             d="M 278.55 71.874687  L 298.55 71.874687  L 298.55 64.874687  L 278.55 64.874687  z "
             style="fill: #d9d9d9"
             id="path389" />
        </g>
        <g
           id="text_14">
          <!-- Indeterminado -->
          <g
             transform="translate(306.55 71.874687) scale(0.1 -0.1)"
             id="g422">
            <defs
               id="defs394">
              <path
                 id="DejaVuSans-74"
                 d="M 1172 4494  L 1172 3500  L 2356 3500  L 2356 3053  L 1172 3053  L 1172 1153  Q 1172 725 1289 603  Q 1406 481 1766 481  L 2356 481  L 2356 0  L 1766 0  Q 1100 0 847 248  Q 594 497 594 1153  L 594 3053  L 172 3053  L 172 3500  L 594 3500  L 594 4494  L 1172 4494  z "
                 transform="scale(0.015625)" />
              <path
                 id="DejaVuSans-72"
                 d="M 2631 2963  Q 2534 3019 2420 3045  Q 2306 3072 2169 3072  Q 1681 3072 1420 2755  Q 1159 2438 1159 1844  L 1159 0  L 581 0  L 581 3500  L 1159 3500  L 1159 2956  Q 1341 3275 1631 3429  Q 1922 3584 2338 3584  Q 2397 3584 2469 3576  Q 2541 3569 2628 3553  L 2631 2963  z "
                 transform="scale(0.015625)" />
            </defs>
            <use
               xlink:href="#DejaVuSans-49"
               id="use396" />
            <use
               xlink:href="#DejaVuSans-6e"
               x="29.492188"
               id="use398" />
            <use
               xlink:href="#DejaVuSans-64"
               x="92.871094"
               id="use400" />
            <use
               xlink:href="#DejaVuSans-65"
               x="156.347656"
               id="use402" />
            <use
               xlink:href="#DejaVuSans-74"
               x="217.871094"
               id="use404" />
            <use
               xlink:href="#DejaVuSans-65"
               x="257.080078"
               id="use406" />
            <use
               xlink:href="#DejaVuSans-72"
               x="318.603516"
               id="use408" />
            <use
               xlink:href="#DejaVuSans-6d"
               x="357.966797"
               id="use410" />
            <use
               xlink:href="#DejaVuSans-69"
               x="455.378906"
               id="use412" />
            <use
               xlink:href="#DejaVuSans-6e"
               x="483.162109"
               id="use414" />
            <use
               xlink:href="#DejaVuSans-61"
               x="546.541016"
               id="use416" />
            <use
               xlink:href="#DejaVuSans-64"
               x="607.820312"
               id="use418" />
            <use
               xlink:href="#DejaVuSans-6f"
               x="671.296875"
               id="use420" />
          </g>
        </g>
        <g
           id="patch_16">
          <path
             d="M 278.55 86.552813  L 298.55 86.552813  L 298.55 79.552813  L 278.55 79.552813  z "
             style="fill: #80b1d3"
             id="path425" />
        </g>
        <g
           id="text_15">
          <!-- Masculino -->
          <g
             transform="translate(306.55 86.552813) scale(0.1 -0.1)"
             id="g450">
            <defs
               id="defs430">
              <path
                 id="DejaVuSans-4d"
                 d="M 628 4666  L 1569 4666  L 2759 1491  L 3956 4666  L 4897 4666  L 4897 0  L 4281 0  L 4281 4097  L 3078 897  L 2444 897  L 1241 4097  L 1241 0  L 628 0  L 628 4666  z "
                 transform="scale(0.015625)" />
              <path
                 id="DejaVuSans-6c"
                 d="M 603 4863  L 1178 4863  L 1178 0  L 603 0  L 603 4863  z "
                 transform="scale(0.015625)" />
            </defs>
            <use
               xlink:href="#DejaVuSans-4d"
               id="use432" />
            <use
               xlink:href="#DejaVuSans-61"
               x="86.279297"
               id="use434" />
            <use
               xlink:href="#DejaVuSans-73"
               x="147.558594"
               id="use436" />
            <use
               xlink:href="#DejaVuSans-63"
               x="199.658203"
               id="use438" />
            <use
               xlink:href="#DejaVuSans-75"
               x="254.638672"
               id="use440" />
            <use
               xlink:href="#DejaVuSans-6c"
               x="318.017578"
               id="use442" />
            <use
               xlink:href="#DejaVuSans-69"
               x="345.800781"
               id="use444" />
            <use
               xlink:href="#DejaVuSans-6e"
               x="373.583984"
               id="use446" />
            <use
               xlink:href="#DejaVuSans-6f"
               x="436.962891"
               id="use448" />
          </g>
        </g>
      </g>
    </g>
  </g>
  <defs
     id="defs459">
    <clipPath
       id="pde99a76db2">
      <rect
         x="54"
         y="25.92"
         width="334.8"
         height="166.32"
         id="rect456" />
    </clipPath>
  </defs>
</svg>
